<svg xmlns="http://www.w3.org/2000/svg" xmlns:xlink="http://www.w3.org/1999/xlink" viewBox="0 0 364.8 112.24"><defs><linearGradient id="linear-gradient" x1="84.85" y1="23.16" x2="77.24" y2="110.19" gradientUnits="userSpaceOnUse"><stop offset="0" stop-color="#fff"/><stop offset="0.19" stop-color="#fcfcfc"/><stop offset="0.32" stop-color="#f3f3f3"/><stop offset="0.44" stop-color="#e3e3e3"/><stop offset="0.55" stop-color="#cdcdcd"/><stop offset="0.65" stop-color="#b1b1b1"/><stop offset="0.74" stop-color="#8e8e8e"/><stop offset="0.83" stop-color="#656565"/><stop offset="0.92" stop-color="#363636"/><stop offset="1" stop-color="#010101"/><stop offset="1"/></linearGradient><linearGradient id="linear-gradient-2" x1="-6.83" y1="99.45" x2="60.87" y2="57.14" xlink:href="#linear-gradient"/><linearGradient id="linear-gradient-3" x1="100.59" y1="73.24" x2="177.42" y2="28.88" gradientUnits="userSpaceOnUse"><stop offset="0"/><stop offset="0" stop-color="#010101"/><stop offset="0.08" stop-color="#363636"/><stop offset="0.17" stop-color="#656565"/><stop offset="0.26" stop-color="#8e8e8e"/><stop offset="0.35" stop-color="#b1b1b1"/><stop offset="0.45" stop-color="#cdcdcd"/><stop offset="0.56" stop-color="#e3e3e3"/><stop offset="0.68" stop-color="#f3f3f3"/><stop offset="0.81" stop-color="#fcfcfc"/><stop offset="1" stop-color="#fff"/></linearGradient></defs><title>Asset 6</title><g id="Layer_2" data-name="Layer 2"><g id="Layer_1-2" data-name="Layer 1"><path d="M175.88,31.71H164.07a6,6,0,0,0-5.42,3.45L131.53,93.32a1.49,1.49,0,0,1-.08.17l-1,2.19c0,.11-.11.2-.16.29a27.46,27.46,0,0,1-2.34,3.74,9.29,9.29,0,0,1-.61.76s0,0,0,0a7.27,7.27,0,0,1-11.8-1.4c-.11-.2-.2-.42-.29-.64L96,56.62l4.07,8.72a2.68,2.68,0,0,0,4.87,0l6.38-13.68L118.6,36a3,3,0,0,0-2.75-4.33h-9a1.42,1.42,0,0,1-.76-2.62l11.63-7.26,10.54-6.58L151.77.57a3.79,3.79,0,0,1,5,.95l10.83,14.37,4.47,5.93,5.23,7A1.83,1.83,0,0,1,175.88,31.71Z" style="fill:#fff"/><path d="M127.33,100.51a31.25,31.25,0,0,1-7.58,7.06l-.11.08-.16.09a30.2,30.2,0,0,1-16.16,4.5h-1.15a29.73,29.73,0,0,1-15.37-4.05c-.5-.29-1-.61-1.43-.92a31,31,0,0,1-10.2-11.46.33.33,0,0,1,0-.11l-1-2.19L63,69.68l-.62-1.33L47.51,36a7.58,7.58,0,0,0-.37-.81,7.26,7.26,0,0,0-12.56-.28l1.49-3.2a17.19,17.19,0,0,1,6.19-7.12l.12-.08a17.07,17.07,0,0,1,9.2-2.69H68.85a17.11,17.11,0,0,1,15.52,9.89l4,8.51,5.42,11.6,2,4.22.28.59,19.23,41.85c.09.22.19.43.29.64a7.27,7.27,0,0,0,11.8,1.4Z" style="fill:url(#linear-gradient)"/><path d="M34.58,34.91l-.68,1.46A7,7,0,0,1,34.58,34.91Z" style="fill:#fff"/><path d="M62.36,68.34a2.36,2.36,0,0,0-4.28,0L38.83,109.62a4.53,4.53,0,0,1-4.11,2.62H2.61a2.6,2.6,0,0,1-2.36-3.7L9,89.79l5.31-11.38a61,61,0,0,0,3-6.53L33.9,36.37l.68-1.46a7.26,7.26,0,0,1,12.56.28,7.58,7.58,0,0,1,.37.81Z" style="fill:url(#linear-gradient-2)"/><path d="M175.88,31.71H164.07a6,6,0,0,0-5.42,3.45L131.53,93.32a1.49,1.49,0,0,1-.08.17l-1,2.19c0,.11-.11.2-.16.29a27.46,27.46,0,0,1-2.34,3.74,9.29,9.29,0,0,1-.61.76s0,0,0,0a7.27,7.27,0,0,1-11.8-1.4c-.11-.2-.2-.42-.29-.64L96,56.62l4.07,8.72a2.68,2.68,0,0,0,4.87,0l6.38-13.68L118.6,36a3,3,0,0,0-2.75-4.33h-9a1.42,1.42,0,0,1-.76-2.62l11.63-7.26,10.54-6.58L151.77.57a3.79,3.79,0,0,1,5,.95l10.83,14.37,4.47,5.93,5.23,7A1.83,1.83,0,0,1,175.88,31.71Z" style="fill:url(#linear-gradient-3)"/><path d="M213,42.61h-5.61l-5.41-11.22-2,11.22h-5.61l3.56-20.08h5.58l5.44,11.37,2-11.37h5.58Z" style="fill:#fff"/><path d="M229.41,39.33h-7.12l-1.65,3.28h-5.87l10.85-20.08h6.44l3.76,20.08h-5.9Zm-.65-4.24-1-6.52-3.3,6.52Z" style="fill:#fff"/><path d="M259.44,22.53,250,36.23l-1.14,6.38h-5.58l1.11-6.38-4.64-13.7h6.38l2.16,7.78,4.9-7.78Z" style="fill:#fff"/><path d="M270.89,39.33h-7.12l-1.65,3.28h-5.87L267.1,22.53h6.44l3.76,20.08h-5.9Zm-.65-4.24-1-6.52-3.3,6.52Z" style="fill:#fff"/><path d="M282.39,27.24a11.73,11.73,0,0,1,4.22-3.62,12,12,0,0,1,5.55-1.3,8.9,8.9,0,0,1,5.94,1.82,6.35,6.35,0,0,1,2.21,5h-6a2.35,2.35,0,0,0-1.08-1.23,4,4,0,0,0-1.94-.43,5,5,0,0,0-3.55,1.37,6.32,6.32,0,0,0-1.87,3.67,8.92,8.92,0,0,0-.14,1.42,3.71,3.71,0,0,0,1.08,2.89,4.6,4.6,0,0,0,3.19,1,5.34,5.34,0,0,0,4.67-2.65h-5.61l.71-4H300.2l-1,5.41A13.24,13.24,0,0,1,295,40.93a11.32,11.32,0,0,1-6.38,1.82,9.85,9.85,0,0,1-4.61-1,7.05,7.05,0,0,1-3-2.83,8.45,8.45,0,0,1-1-4.22,11.32,11.32,0,0,1,.2-2.16A12.51,12.51,0,0,1,282.39,27.24Z" style="fill:#fff"/><path d="M314,39.33h-7.12l-1.65,3.28h-5.87l10.85-20.08h6.44l3.76,20.08h-5.9Zm-.65-4.24-1-6.52L309,35.09Z" style="fill:#fff"/><path d="M202.7,61.12l-.57,3.33h6.41l-.77,4.24h-6.41l-.65,3.65H208l-.77,4.44H194.32l3.56-20.08h12.85L210,61.12Z" style="fill:#fff"/><path d="M226.22,57.69a7,7,0,0,1,3.08,2.78,8.12,8.12,0,0,1,1.05,4.19,10.6,10.6,0,0,1-.2,2.08,12.07,12.07,0,0,1-2.21,5.18,11.85,11.85,0,0,1-4.3,3.58,12.77,12.77,0,0,1-5.77,1.3h-7.95l3.56-20.08h7.95A10.85,10.85,0,0,1,226.22,57.69Zm-3.82,12.85a6.91,6.91,0,0,0,2.19-5,3.69,3.69,0,0,0-1.17-2.93,4.8,4.8,0,0,0-3.28-1h-1.91L216.4,71.89h1.94A6.14,6.14,0,0,0,222.41,70.54Z" style="fill:#fff"/><path d="M239.9,56.71l-2,11.65a5.92,5.92,0,0,0-.09,1,2.42,2.42,0,0,0,.61,1.77,2.54,2.54,0,0,0,1.89.63,3.47,3.47,0,0,0,2.48-.88A4.32,4.32,0,0,0,244,68.36L246,56.71h5.58l-2.05,11.65a10.69,10.69,0,0,1-2,4.79A9.26,9.26,0,0,1,244,76a11.32,11.32,0,0,1-4.67,1,7.76,7.76,0,0,1-5.25-1.71,6.12,6.12,0,0,1-2-4.9,10.31,10.31,0,0,1,.2-2l2.05-11.65Z" style="fill:#fff"/><path d="M254.42,61.42a11.55,11.55,0,0,1,4.16-3.62,11.73,11.73,0,0,1,5.47-1.3,9.7,9.7,0,0,1,4.33.91A6.81,6.81,0,0,1,271.26,60a8.05,8.05,0,0,1,1.11,4h-6a3.13,3.13,0,0,0-1.2-1.71,3.59,3.59,0,0,0-2.11-.6A4.6,4.6,0,0,0,259.72,63a6.53,6.53,0,0,0-1.79,3.67,6.86,6.86,0,0,0-.11,1.28,4,4,0,0,0,.93,2.78,3.28,3.28,0,0,0,2.55,1,4.67,4.67,0,0,0,2.32-.6,5,5,0,0,0,1.78-1.71h6a11.57,11.57,0,0,1-11,7.46,9.51,9.51,0,0,1-4.49-1,6.85,6.85,0,0,1-2.89-2.82,8.65,8.65,0,0,1-1-4.22,12.07,12.07,0,0,1,.2-2.19A12.73,12.73,0,0,1,254.42,61.42Z" style="fill:#fff"/><path d="M286,73.51h-7.12l-1.65,3.28H271.4l10.85-20.08h6.44l3.76,20.08h-5.9Zm-.65-4.24-1-6.52-3.3,6.52Z" style="fill:#fff"/><path d="M312.93,56.71l-.8,4.44H306.8L304,76.79h-5.61l2.76-15.64h-5.3l.8-4.44Z" style="fill:#fff"/><path d="M320.59,56.71l-3.53,20.08h-5.61L315,56.71Z" style="fill:#fff"/><path d="M325.46,75.93a7.36,7.36,0,0,1-3-3,8.92,8.92,0,0,1-1.05-4.39,13.16,13.16,0,0,1,1.5-6.34,10.72,10.72,0,0,1,4.19-4.32,12.21,12.21,0,0,1,6.17-1.54,9.52,9.52,0,0,1,4.54,1,7.29,7.29,0,0,1,3,2.93,8.85,8.85,0,0,1,1.05,4.37,13.08,13.08,0,0,1-1.51,6.32,11,11,0,0,1-4.22,4.36A12.17,12.17,0,0,1,329.93,77,9.21,9.21,0,0,1,325.46,75.93Zm8.27-5a5.67,5.67,0,0,0,1.94-2.35,7.57,7.57,0,0,0,.67-3.18,3.9,3.9,0,0,0-1-2.83,3.74,3.74,0,0,0-2.81-1,5.15,5.15,0,0,0-3,.87,5.66,5.66,0,0,0-2,2.32,7.4,7.4,0,0,0-.68,3.19,3.92,3.92,0,0,0,1,2.83,3.76,3.76,0,0,0,2.85,1A5,5,0,0,0,333.74,70.92Z" style="fill:#fff"/><path d="M361.26,76.79h-5.61l-5.41-11.22-2,11.22h-5.61l3.56-20.08h5.58l5.44,11.37,2-11.37h5.58Z" style="fill:#fff"/><path d="M197.6,95.6A11.55,11.55,0,0,1,201.76,92a11.73,11.73,0,0,1,5.47-1.3,9.7,9.7,0,0,1,4.33.91,6.81,6.81,0,0,1,2.88,2.59,8.05,8.05,0,0,1,1.11,4h-6a3.13,3.13,0,0,0-1.2-1.71,3.59,3.59,0,0,0-2.11-.6,4.6,4.6,0,0,0-3.33,1.37,6.53,6.53,0,0,0-1.79,3.67,6.86,6.86,0,0,0-.11,1.28,4,4,0,0,0,.93,2.78,3.28,3.28,0,0,0,2.55,1,4.67,4.67,0,0,0,2.32-.6,5,5,0,0,0,1.78-1.71h6a11.57,11.57,0,0,1-11,7.46,9.51,9.51,0,0,1-4.49-1,6.85,6.85,0,0,1-2.89-2.82,8.65,8.65,0,0,1-1-4.22,12.07,12.07,0,0,1,.2-2.19A12.73,12.73,0,0,1,197.6,95.6Z" style="fill:#fff"/><path d="M224.29,95.3l-.57,3.33h6.41l-.77,4.24h-6.41l-.65,3.65h7.26l-.77,4.44H215.91l3.56-20.08h12.85l-.77,4.42Z" style="fill:#fff"/><path d="M250.15,111h-5.61l-5.41-11.22-2,11.22h-5.61l3.56-20.08h5.58l5.44,11.37,2-11.37h5.58Z" style="fill:#fff"/><path d="M272,90.89l-.8,4.44h-5.33L263.11,111H257.5l2.76-15.64H255l.8-4.44Z" style="fill:#fff"/><path d="M278.89,95.3l-.57,3.33h6.41l-.77,4.24h-6.41l-.65,3.65h7.26l-.77,4.44H270.52l3.56-20.08h12.85l-.77,4.42Z" style="fill:#fff"/><path d="M303.3,92.3A4.68,4.68,0,0,1,305,96a6.58,6.58,0,0,1-.11,1.28,7,7,0,0,1-1.74,3.6,7.65,7.65,0,0,1-3.7,2.21l3.13,7.83h-6.21l-2.68-7.41H293L291.74,111h-5.61l3.56-20.08h8.8A7.23,7.23,0,0,1,303.3,92.3Zm-9.57,7.45h2.76a2.38,2.38,0,0,0,2.62-2.11,3.41,3.41,0,0,0,.06-.48,1.49,1.49,0,0,0-.5-1.2,2.2,2.2,0,0,0-1.47-.43h-2.76Z" style="fill:#fff"/></g></g></svg>