<svg xmlns="http://www.w3.org/2000/svg" xmlns:xlink="http://www.w3.org/1999/xlink" viewBox="0 0 259.75 164.05"><defs><linearGradient id="linear-gradient" x1="92.68" y1="24.5" x2="142.66" y2="169.64" gradientUnits="userSpaceOnUse"><stop offset="0" stop-color="#0196d0"/><stop offset="0.13" stop-color="#0390c7"/><stop offset="0.35" stop-color="#077eaf"/><stop offset="0.62" stop-color="#0f6289"/><stop offset="0.94" stop-color="#193b53"/><stop offset="1" stop-color="#1b3348"/></linearGradient><linearGradient id="linear-gradient-2" x1="0.66" y1="162.52" x2="88.16" y2="68.68" xlink:href="#linear-gradient"/><linearGradient id="linear-gradient-3" x1="225.67" y1="-0.09" x2="163.97" y2="145.29" xlink:href="#linear-gradient"/></defs><title>Asset 4</title><g id="Layer_2" data-name="Layer 2"><g id="Layer_1-2" data-name="Layer 1"><path d="M257.07,46.35H239.8a8.79,8.79,0,0,0-7.92,5l-39.64,85a2.18,2.18,0,0,1-.11.25l-1.47,3.2c-.07.16-.16.29-.23.43a40.14,40.14,0,0,1-3.43,5.47,13.58,13.58,0,0,1-.88,1.11s0,0,0,0a10.63,10.63,0,0,1-17.24-2c-.16-.29-.29-.61-.43-.93L140.32,82.76l5.94,12.75a3.92,3.92,0,0,0,7.12,0l9.32-20,10.64-22.85a4.44,4.44,0,0,0-4-6.33H156.24a2.08,2.08,0,0,1-1.11-3.83l17-10.62,15.4-9.62L221.83.83a5.53,5.53,0,0,1,7.35,1.38l15.84,21,6.53,8.67,7.65,10.16A2.67,2.67,0,0,1,257.07,46.35Z" style="fill:#52ba63"/><path d="M186.1,146.9A45.67,45.67,0,0,1,175,157.22s-.11.07-.16.11l-.23.14A44.14,44.14,0,0,1,151,164h-1.68a43.45,43.45,0,0,1-22.46-5.92c-.73-.43-1.41-.88-2.09-1.34A45.29,45.29,0,0,1,109.89,140a.48.48,0,0,1-.07-.16l-1.5-3.2L92.06,101.84l-.91-2L69.44,52.61a11.09,11.09,0,0,0-.54-1.18A10.61,10.61,0,0,0,50.54,51l2.18-4.67a25.12,25.12,0,0,1,9.05-10.41l.18-.11a25,25,0,0,1,13.45-3.92h25.23a25,25,0,0,1,22.69,14.45l5.79,12.43L137,75.73l2.88,6.17.41.86,28.11,61.17c.14.32.27.64.43.93a10.63,10.63,0,0,0,17.24,2Z" style="fill:url(#linear-gradient)"/><path d="M50.54,51l-1,2.13A10.17,10.17,0,0,1,50.54,51Z" style="fill:none;stroke:#231f20;stroke-miterlimit:10;stroke-width:2.2823659464971424px"/><path d="M91.15,99.89a3.44,3.44,0,0,0-6.26,0L56.75,160.22a6.62,6.62,0,0,1-6,3.82H3.81a3.81,3.81,0,0,1-3.45-5.41l12.77-27.39,7.76-16.63a89.2,89.2,0,0,0,4.45-9.55L49.54,53.15l1-2.13a10.61,10.61,0,0,1,18.35.41,11.09,11.09,0,0,1,.54,1.18Z" style="fill:url(#linear-gradient-2)"/><path d="M257.07,46.35H239.8a8.79,8.79,0,0,0-7.92,5l-39.64,85a2.18,2.18,0,0,1-.11.25l-1.47,3.2c-.07.16-.16.29-.23.43a40.14,40.14,0,0,1-3.43,5.47,13.58,13.58,0,0,1-.88,1.11s0,0,0,0a10.63,10.63,0,0,1-17.24-2c-.16-.29-.29-.61-.43-.93L140.32,82.76l5.94,12.75a3.92,3.92,0,0,0,7.12,0l9.32-20,10.64-22.85a4.44,4.44,0,0,0-4-6.33H156.24a2.08,2.08,0,0,1-1.11-3.83l17-10.62,15.4-9.62L221.83.83a5.53,5.53,0,0,1,7.35,1.38l15.84,21,6.53,8.67,7.65,10.16A2.67,2.67,0,0,1,257.07,46.35Z" style="fill:url(#linear-gradient-3)"/></g></g></svg>