<svg xmlns="http://www.w3.org/2000/svg" viewBox="0 0 249.16 129.77"><title>Asset 5</title><g id="Layer_2" data-name="Layer 2"><g id="Layer_1-2" data-name="Layer 1"><path d="M27.23,29.64H19l-7.91-16.4L8.2,29.64H0L5.2.29h8.16l8,16.61L24.23.29h8.16Z" style="fill:#231f20"/><path d="M51.29,24.85H40.88l-2.41,4.79H29.89L45.75.29h9.41l5.5,29.35H52Zm-1-6.2L48.88,9.12,44,18.65Z" style="fill:#231f20"/><path d="M95.17.29l-13.86,20-1.67,9.33H71.48l1.62-9.33L66.32.29h9.33l3.16,11.37L86,.29Z" style="fill:#231f20"/><path d="M111.91,24.85H101.5l-2.41,4.79H90.51L106.37.29h9.41l5.5,29.35h-8.62Zm-1-6.2-1.46-9.53-4.83,9.53Z" style="fill:#231f20"/><path d="M128.72,7.18a17.14,17.14,0,0,1,6.16-5.29A17.57,17.57,0,0,1,143,0q5.54,0,8.68,2.66A9.28,9.28,0,0,1,154.91,10h-8.78a3.44,3.44,0,0,0-1.58-1.79,5.78,5.78,0,0,0-2.83-.62,7.33,7.33,0,0,0-5.18,2,9.24,9.24,0,0,0-2.73,5.37,13,13,0,0,0-.21,2.08,5.42,5.42,0,0,0,1.58,4.23,6.72,6.72,0,0,0,4.66,1.44,7.81,7.81,0,0,0,6.83-3.87h-8.2l1-5.87h15.24l-1.42,7.91a19.35,19.35,0,0,1-6.2,6.37,16.54,16.54,0,0,1-9.33,2.67,14.39,14.39,0,0,1-6.74-1.48,10.31,10.31,0,0,1-4.33-4.14,12.35,12.35,0,0,1-1.5-6.16,16.54,16.54,0,0,1,.29-3.16A18.29,18.29,0,0,1,128.72,7.18Z" style="fill:#231f20"/><path d="M174.85,24.85H164.44L162,29.64h-8.58L169.31.29h9.41l5.5,29.35H175.6Zm-1-6.2-1.46-9.53-4.83,9.53Z" style="fill:#231f20"/><path d="M12.24,56.7l-.83,4.87h9.37l-1.12,6.2H10.28l-1,5.33H19.94L18.82,79.6H0L5.2,50.25H24L22.86,56.7Z" style="fill:#231f20"/><path d="M46.63,51.69a10.26,10.26,0,0,1,4.5,4.06,11.87,11.87,0,0,1,1.54,6.12,15.49,15.49,0,0,1-.29,3,17.64,17.64,0,0,1-3.23,7.58,17.32,17.32,0,0,1-6.29,5.23,18.67,18.67,0,0,1-8.43,1.89H22.81L28,50.25H39.63A15.86,15.86,0,0,1,46.63,51.69ZM41,70.46a10.11,10.11,0,0,0,3.21-7.35,5.4,5.4,0,0,0-1.71-4.29,7,7,0,0,0-4.79-1.5H35L32.26,72.44H35.1A9,9,0,0,0,41,70.46Z" style="fill:#231f20"/><path d="M66.61,50.25l-3,17a8.66,8.66,0,0,0-.12,1.42,3.53,3.53,0,0,0,.89,2.58,3.72,3.72,0,0,0,2.77.92,5.07,5.07,0,0,0,3.62-1.29,6.32,6.32,0,0,0,1.79-3.62l3-17h8.16l-3,17a15.62,15.62,0,0,1-2.87,7A13.54,13.54,0,0,1,72.6,78.5a16.54,16.54,0,0,1-6.83,1.39,11.34,11.34,0,0,1-7.68-2.5,8.94,8.94,0,0,1-2.89-7.16,15.08,15.08,0,0,1,.29-3l3-17Z" style="fill:#231f20"/><path d="M87.84,57.14a16.89,16.89,0,0,1,6.08-5.29,17.14,17.14,0,0,1,8-1.89,14.18,14.18,0,0,1,6.33,1.33,10,10,0,0,1,4.2,3.79,11.77,11.77,0,0,1,1.62,5.79h-8.78a4.58,4.58,0,0,0-1.75-2.5,5.24,5.24,0,0,0-3.08-.87,6.72,6.72,0,0,0-4.87,2A9.55,9.55,0,0,0,93,64.86a10,10,0,0,0-.17,1.87,5.79,5.79,0,0,0,1.35,4.06,4.8,4.8,0,0,0,3.73,1.48,6.82,6.82,0,0,0,3.39-.87,7.32,7.32,0,0,0,2.6-2.5h8.83A16.92,16.92,0,0,1,96.63,79.81a13.9,13.9,0,0,1-6.56-1.46,10,10,0,0,1-4.23-4.12,12.64,12.64,0,0,1-1.46-6.16,17.64,17.64,0,0,1,.29-3.21A18.6,18.6,0,0,1,87.84,57.14Z" style="fill:#231f20"/><path d="M134.05,74.81H123.64l-2.41,4.79h-8.58l15.86-29.35h9.41l5.5,29.35H134.8Zm-1-6.2-1.46-9.53-4.83,9.53Z" style="fill:#231f20"/><path d="M173.35,50.25l-1.17,6.49H164.4l-4,22.86h-8.2l4-22.86h-7.74l1.17-6.49Z" style="fill:#231f20"/><path d="M184.55,50.25,179.39,79.6h-8.2l5.2-29.35Z" style="fill:#231f20"/><path d="M191.67,78.35A10.76,10.76,0,0,1,187.3,74a13,13,0,0,1-1.54-6.41,19.23,19.23,0,0,1,2.19-9.26A15.67,15.67,0,0,1,194.06,52a17.84,17.84,0,0,1,9-2.25,13.92,13.92,0,0,1,6.64,1.52,10.65,10.65,0,0,1,4.39,4.29A12.93,12.93,0,0,1,215.65,62a19.12,19.12,0,0,1-2.21,9.24,16,16,0,0,1-6.16,6.37,17.78,17.78,0,0,1-9.08,2.29A13.46,13.46,0,0,1,191.67,78.35ZM203.76,71a8.28,8.28,0,0,0,2.83-3.43,11.06,11.06,0,0,0,1-4.64,5.7,5.7,0,0,0-1.44-4.14,5.46,5.46,0,0,0-4.1-1.48,7.53,7.53,0,0,0-4.33,1.27A8.27,8.27,0,0,0,194.83,62a10.82,10.82,0,0,0-1,4.66,5.73,5.73,0,0,0,1.46,4.14,5.5,5.5,0,0,0,4.16,1.52A7.35,7.35,0,0,0,203.76,71Z" style="fill:#231f20"/><path d="M244,79.6h-8.2l-7.91-16.4L225,79.6h-8.2L222,50.25h8.16l8,16.61L241,50.25h8.16Z" style="fill:#231f20"/><path d="M4.79,107.1a16.89,16.89,0,0,1,6.08-5.29,17.14,17.14,0,0,1,8-1.89,14.18,14.18,0,0,1,6.33,1.33,10,10,0,0,1,4.2,3.79A11.77,11.77,0,0,1,31,110.82H22.23a4.58,4.58,0,0,0-1.75-2.5,5.24,5.24,0,0,0-3.08-.87,6.72,6.72,0,0,0-4.87,2,9.55,9.55,0,0,0-2.62,5.37,10,10,0,0,0-.17,1.87,5.79,5.79,0,0,0,1.35,4.06,4.8,4.8,0,0,0,3.73,1.48,6.82,6.82,0,0,0,3.39-.87,7.32,7.32,0,0,0,2.6-2.5h8.83a16.92,16.92,0,0,1-16.07,10.91A13.9,13.9,0,0,1,7,128.31a10,10,0,0,1-4.23-4.12A12.64,12.64,0,0,1,1.33,118a17.64,17.64,0,0,1,.29-3.21A18.6,18.6,0,0,1,4.79,107.1Z" style="fill:#231f20"/><path d="M43.8,106.66,43,111.53h9.37l-1.12,6.2H41.84l-1,5.33H51.5l-1.12,6.49H31.56l5.2-29.35H55.54l-1.12,6.45Z" style="fill:#231f20"/><path d="M81.6,129.56H73.4l-7.91-16.4-2.91,16.4h-8.2l5.2-29.35h8.16l8,16.61,2.91-16.61h8.16Z" style="fill:#231f20"/><path d="M113.53,100.21l-1.17,6.49h-7.78l-4,22.86h-8.2l4-22.86H88.63l1.17-6.49Z" style="fill:#231f20"/><path d="M123.6,106.66l-.83,4.87h9.37l-1.12,6.2h-9.37l-1,5.33h10.62l-1.12,6.49H111.36l5.2-29.35h18.78l-1.12,6.45Z" style="fill:#231f20"/><path d="M159.28,102.27a6.84,6.84,0,0,1,2.42,5.48,9.62,9.62,0,0,1-.17,1.87,10.24,10.24,0,0,1-2.54,5.27,11.19,11.19,0,0,1-5.41,3.23l4.58,11.45h-9.08l-3.91-10.82h-.87l-1.92,10.82h-8.2l5.2-29.35h12.86Q156.87,100.21,159.28,102.27Zm-14,10.89h4a3.48,3.48,0,0,0,3.83-3.08,5,5,0,0,0,.08-.71,2.18,2.18,0,0,0-.73-1.75,3.22,3.22,0,0,0-2.14-.62h-4Z" style="fill:#231f20"/></g></g></svg>