<svg xmlns="http://www.w3.org/2000/svg" xmlns:xlink="http://www.w3.org/1999/xlink" viewBox="0 0 196.76 60.54"><defs><linearGradient id="linear-gradient" x1="34.2" y1="9.04" x2="52.64" y2="62.6" gradientUnits="userSpaceOnUse"><stop offset="0" stop-color="#0196d0"/><stop offset="0.13" stop-color="#0390c7"/><stop offset="0.35" stop-color="#077eaf"/><stop offset="0.62" stop-color="#0f6289"/><stop offset="0.94" stop-color="#193b53"/><stop offset="1" stop-color="#1b3348"/></linearGradient><linearGradient id="linear-gradient-2" x1="0.25" y1="59.97" x2="32.54" y2="25.35" xlink:href="#linear-gradient"/><linearGradient id="linear-gradient-3" x1="83.28" y1="-0.03" x2="60.51" y2="53.61" xlink:href="#linear-gradient"/></defs><title>Asset 1</title><g id="Layer_2" data-name="Layer 2"><g id="Cover"><path d="M94.86,17.1H88.49A3.24,3.24,0,0,0,85.57,19L70.94,50.33l0,.09-.54,1.18c0,.06-.06.11-.08.16a14.81,14.81,0,0,1-1.26,2,5,5,0,0,1-.33.41s0,0,0,0a3.92,3.92,0,0,1-6.36-.75c-.06-.11-.11-.23-.16-.34L51.78,30.54,54,35.25a1.45,1.45,0,0,0,2.63,0L60,27.87,64,19.44a1.64,1.64,0,0,0-1.48-2.34H57.66a.77.77,0,0,1-.41-1.41l6.27-3.92L69.2,8.22,81.86.31a2,2,0,0,1,2.71.51l5.84,7.75,2.41,3.2,2.82,3.75A1,1,0,0,1,94.86,17.1Z" style="fill:#52ba63"/><path d="M68.68,54.21A16.86,16.86,0,0,1,64.59,58l-.06,0-.08.05a16.29,16.29,0,0,1-8.72,2.43h-.62a16,16,0,0,1-8.29-2.19c-.27-.16-.52-.33-.77-.49a16.71,16.71,0,0,1-5.5-6.18.18.18,0,0,1,0-.06L40,50.44,34,37.58l-.33-.72-8-17.45a4.09,4.09,0,0,0-.2-.44,3.92,3.92,0,0,0-6.77-.15l.8-1.72a9.27,9.27,0,0,1,3.34-3.84l.07,0a9.21,9.21,0,0,1,5-1.45h9.31a9.23,9.23,0,0,1,8.37,5.33l2.13,4.59,2.92,6.25,1.06,2.28.15.32L62.15,53.11c.05.12.1.23.16.34a3.92,3.92,0,0,0,6.36.75Z" style="fill:url(#linear-gradient)"/><path d="M18.65,18.83l-.37.79A3.75,3.75,0,0,1,18.65,18.83Z" style="fill:none;stroke:#231f20;stroke-miterlimit:10;stroke-width:0.842253203882294px"/><path d="M33.64,36.86a1.27,1.27,0,0,0-2.31,0L20.94,59.13a2.44,2.44,0,0,1-2.22,1.41H1.41a1.4,1.4,0,0,1-1.27-2L4.84,48.43,7.71,42.3a32.92,32.92,0,0,0,1.64-3.52l8.93-19.16.37-.79a3.92,3.92,0,0,1,6.77.15,4.09,4.09,0,0,1,.2.44Z" style="fill:url(#linear-gradient-2)"/><path d="M94.86,17.1H88.49A3.24,3.24,0,0,0,85.57,19L70.94,50.33l0,.09-.54,1.18c0,.06-.06.11-.08.16a14.81,14.81,0,0,1-1.26,2,5,5,0,0,1-.33.41s0,0,0,0a3.92,3.92,0,0,1-6.36-.75c-.06-.11-.11-.23-.16-.34L51.78,30.54,54,35.25a1.45,1.45,0,0,0,2.63,0L60,27.87,64,19.44a1.64,1.64,0,0,0-1.48-2.34H57.66a.77.77,0,0,1-.41-1.41l6.27-3.92L69.2,8.22,81.86.31a2,2,0,0,1,2.71.51l5.84,7.75,2.41,3.2,2.82,3.75A1,1,0,0,1,94.86,17.1Z" style="fill:url(#linear-gradient-3)"/><path d="M114.86,23h-3l-2.92-6.05L107.84,23h-3l1.92-10.83h3l2.93,6.13,1.08-6.13h3Z" style="fill:#231f20"/><path d="M123.74,21.21H119.9L119,23h-3.16l5.85-10.83h3.47l2,10.83H124Zm-.35-2.29-.54-3.52-1.78,3.52Z" style="fill:#231f20"/><path d="M139.93,12.15l-5.12,7.39L134.2,23h-3l.6-3.44-2.5-7.39h3.44l1.17,4.19,2.64-4.19Z" style="fill:#231f20"/><path d="M146.11,21.21h-3.84L141.37,23h-3.16l5.85-10.83h3.47l2,10.83h-3.18Zm-.35-2.29-.54-3.52-1.78,3.52Z" style="fill:#231f20"/><path d="M152.31,14.69a6.32,6.32,0,0,1,2.27-2,6.48,6.48,0,0,1,3-.7,4.8,4.8,0,0,1,3.2,1A3.43,3.43,0,0,1,162,15.71h-3.24a1.27,1.27,0,0,0-.58-.66,2.13,2.13,0,0,0-1-.23,2.71,2.71,0,0,0-1.91.74,3.41,3.41,0,0,0-1,2,4.81,4.81,0,0,0-.08.77,2,2,0,0,0,.58,1.56,2.48,2.48,0,0,0,1.72.53A2.88,2.88,0,0,0,158.93,19h-3l.38-2.17h5.62l-.52,2.92a7.14,7.14,0,0,1-2.29,2.35,6.1,6.1,0,0,1-3.44,1,5.31,5.31,0,0,1-2.49-.55,3.8,3.8,0,0,1-1.6-1.53,4.56,4.56,0,0,1-.55-2.27,6.1,6.1,0,0,1,.11-1.17A6.75,6.75,0,0,1,152.31,14.69Z" style="fill:#231f20"/><path d="M169.34,21.21h-3.84L164.6,23h-3.16l5.85-10.83h3.47l2,10.83h-3.18ZM169,18.92l-.54-3.52-1.78,3.52Z" style="fill:#231f20"/><path d="M109.33,33l-.31,1.8h3.46l-.41,2.29h-3.46l-.35,2h3.92l-.41,2.4h-6.94l1.92-10.83h6.93L113.24,33Z" style="fill:#231f20"/><path d="M122,31.12a3.78,3.78,0,0,1,1.66,1.5,4.38,4.38,0,0,1,.57,2.26,5.72,5.72,0,0,1-.11,1.12,6.51,6.51,0,0,1-1.19,2.8,6.39,6.39,0,0,1-2.32,1.93,6.89,6.89,0,0,1-3.11.7h-4.29l1.92-10.83h4.29A5.85,5.85,0,0,1,122,31.12ZM120,38a3.73,3.73,0,0,0,1.18-2.71,2,2,0,0,0-.63-1.58,2.59,2.59,0,0,0-1.77-.55h-1l-1,5.58h1A3.31,3.31,0,0,0,120,38Z" style="fill:#231f20"/><path d="M129.39,30.59l-1.09,6.28a3.2,3.2,0,0,0,0,.52,1.3,1.3,0,0,0,.33,1,1.37,1.37,0,0,0,1,.34,1.87,1.87,0,0,0,1.34-.48,2.33,2.33,0,0,0,.66-1.34l1.11-6.28h3l-1.11,6.28a5.77,5.77,0,0,1-1.06,2.58,5,5,0,0,1-2,1.56,6.1,6.1,0,0,1-2.52.51,4.18,4.18,0,0,1-2.83-.92A3.3,3.3,0,0,1,125.18,38a5.56,5.56,0,0,1,.11-1.09l1.11-6.28Z" style="fill:#231f20"/><path d="M137.23,33.13a6.23,6.23,0,0,1,2.24-2,6.33,6.33,0,0,1,2.95-.7,5.23,5.23,0,0,1,2.34.49,3.67,3.67,0,0,1,1.55,1.4,4.34,4.34,0,0,1,.6,2.14h-3.24a1.69,1.69,0,0,0-.65-.92,1.94,1.94,0,0,0-1.14-.32,2.48,2.48,0,0,0-1.8.74,3.52,3.52,0,0,0-1,2,3.7,3.7,0,0,0-.06.69,2.14,2.14,0,0,0,.5,1.5,1.77,1.77,0,0,0,1.37.55,2.52,2.52,0,0,0,1.25-.32,2.7,2.7,0,0,0,1-.92h3.26a6.24,6.24,0,0,1-5.93,4A5.13,5.13,0,0,1,138,41a3.69,3.69,0,0,1-1.56-1.52,4.66,4.66,0,0,1-.54-2.27,6.51,6.51,0,0,1,.11-1.18A6.86,6.86,0,0,1,137.23,33.13Z" style="fill:#231f20"/><path d="M154.28,39.65h-3.84l-.89,1.77h-3.16l5.85-10.83h3.47l2,10.83h-3.18Zm-.35-2.29-.54-3.52-1.78,3.52Z" style="fill:#231f20"/><path d="M168.78,30.59l-.43,2.4h-2.87L164,41.42h-3L162.45,33H159.6l.43-2.4Z" style="fill:#231f20"/><path d="M172.91,30.59,171,41.42h-3l1.92-10.83Z" style="fill:#231f20"/><path d="M175.54,41a4,4,0,0,1-1.61-1.6,4.81,4.81,0,0,1-.57-2.37,7.1,7.1,0,0,1,.81-3.42,5.78,5.78,0,0,1,2.26-2.33,6.58,6.58,0,0,1,3.33-.83,5.14,5.14,0,0,1,2.45.56,3.93,3.93,0,0,1,1.62,1.58,4.77,4.77,0,0,1,.57,2.36,7.05,7.05,0,0,1-.81,3.41,5.91,5.91,0,0,1-2.27,2.35,6.56,6.56,0,0,1-3.35.84A5,5,0,0,1,175.54,41Zm4.46-2.7A3.06,3.06,0,0,0,181,37a4.08,4.08,0,0,0,.36-1.71,2.1,2.1,0,0,0-.53-1.53,2,2,0,0,0-1.51-.55,2.78,2.78,0,0,0-1.6.47,3.05,3.05,0,0,0-1.06,1.25,4,4,0,0,0-.37,1.72,2.12,2.12,0,0,0,.54,1.53,2,2,0,0,0,1.54.56A2.71,2.71,0,0,0,180,38.25Z" style="fill:#231f20"/><path d="M194.85,41.42h-3l-2.92-6.05-1.08,6.05h-3l1.92-10.83h3l2.93,6.13,1.08-6.13h3Z" style="fill:#231f20"/><path d="M106.58,51.56a6.23,6.23,0,0,1,2.24-2,6.33,6.33,0,0,1,2.95-.7,5.23,5.23,0,0,1,2.34.49,3.67,3.67,0,0,1,1.55,1.4,4.34,4.34,0,0,1,.6,2.14H113a1.69,1.69,0,0,0-.65-.92,1.94,1.94,0,0,0-1.14-.32,2.48,2.48,0,0,0-1.8.74,3.52,3.52,0,0,0-1,2,3.7,3.7,0,0,0-.06.69,2.14,2.14,0,0,0,.5,1.5,1.77,1.77,0,0,0,1.37.55,2.52,2.52,0,0,0,1.25-.32,2.7,2.7,0,0,0,1-.92h3.26a6.24,6.24,0,0,1-5.93,4,5.13,5.13,0,0,1-2.42-.54,3.69,3.69,0,0,1-1.56-1.52,4.66,4.66,0,0,1-.54-2.27,6.51,6.51,0,0,1,.11-1.18A6.86,6.86,0,0,1,106.58,51.56Z" style="fill:#231f20"/><path d="M121,51.4l-.31,1.8h3.46l-.41,2.29h-3.46l-.35,2h3.92l-.41,2.4h-6.94L118.38,49h6.93l-.41,2.38Z" style="fill:#231f20"/><path d="M134.92,59.85h-3L129,53.8l-1.08,6.05h-3L126.8,49h3l2.93,6.13L133.82,49h3Z" style="fill:#231f20"/><path d="M146.71,49l-.43,2.4H143.4l-1.49,8.43h-3l1.49-8.43h-2.86l.43-2.4Z" style="fill:#231f20"/><path d="M150.42,51.4l-.31,1.8h3.46l-.41,2.29H149.7l-.35,2h3.92l-.41,2.4h-6.94L147.83,49h6.93l-.41,2.38Z" style="fill:#231f20"/><path d="M163.59,49.78a2.53,2.53,0,0,1,.89,2,3.55,3.55,0,0,1-.06.69,3.78,3.78,0,0,1-.94,1.94,4.13,4.13,0,0,1-2,1.19l1.69,4.22h-3.35l-1.44-4h-.32l-.71,4h-3L156.25,49H161A3.9,3.9,0,0,1,163.59,49.78Zm-5.16,4h1.49a1.28,1.28,0,0,0,1.41-1.14,1.84,1.84,0,0,0,0-.26.8.8,0,0,0-.27-.65,1.19,1.19,0,0,0-.79-.23h-1.49Z" style="fill:#231f20"/></g></g></svg>